# xmcd
# 
# Track frame offsets:
#     150
#     14862
#     28372
#     42576
#     56554
#     71112
#     86450
#     99467
#     113200
#     125212
#     139035
#     150580
#     160121
#     172353
#     184950
# 
# Disc length: 2617
# 
# Revision: 0
# Processed by: cddbd v1.5.2PL0 Copyright (c) Steve Scherf et al.
# Submitted via: fre:ac v1.0.31
# 
DISCID=e20a370f
DTITLE=Muddy Waters - I'm Your Hoochie Coochie Man CD2
DYEAR=2007
DGENRE=Blues
TTITLE0=Baby Please Don't Go
TTITLE1=Rollin' And Tumblin'
TTITLE2=I Feel Like Going Home
TTITLE3=I Be's Troubled
TTITLE4=Streamline Woman
TTITLE5=Country Blues
TTITLE6=Louisiana Blues
TTITLE7=I Want You To Love Me
TTITLE8=Long Distance Call
TTITLE9=Take A Walk With Me
TTITLE10=Gypsy Woman
TTITLE11=You Got To Take Sick And Die Some Of These Days
TTITLE12=I Can't Be Statisfied
TTITLE13=Little Geneva
TTITLE14=Little Anna Mea
EXTD=
EXTT0=
EXTT1=
EXTT2=
EXTT3=
EXTT4=
EXTT5=
EXTT6=
EXTT7=
EXTT8=
EXTT9=
EXTT10=
EXTT11=
EXTT12=
EXTT13=
EXTT14=
PLAYORDER=
